<svg width="20" height="20" viewBox="0 0 20 20" fill="none" xmlns="http://www.w3.org/2000/svg">
<rect width="20" height="20" rx="10" fill="#2D2D2D"/>
<path d="M5 7.03006V6.41283C5 5.96927 5.09029 5.5658 5.27088 5.2024C5.45147 4.83901 5.71733 4.54776 6.06847 4.32866C6.41961 4.10955 6.85102 4 7.36268 4C7.88939 4 8.32832 4.10955 8.67946 4.32866C9.03562 4.54776 9.30148 4.83901 9.47705 5.2024C9.65764 5.5658 9.74793 5.96927 9.74793 6.41283V7.03006C9.74793 7.46293 9.65764 7.86106 9.47705 8.22445C9.30148 8.58784 9.03812 8.87909 8.68698 9.0982C8.33584 9.3173 7.89942 9.42685 7.37773 9.42685C6.86105 9.42685 6.42463 9.3173 6.06847 9.0982C5.71733 8.87909 5.45147 8.58784 5.27088 8.22445C5.09029 7.86106 5 7.46293 5 7.03006ZM6.43717 6.41283V7.03006C6.43717 7.2171 6.46978 7.39613 6.53499 7.56713C6.60522 7.7328 6.71056 7.86907 6.85102 7.97595C6.99649 8.07749 7.17206 8.12826 7.37773 8.12826C7.59343 8.12826 7.769 8.07749 7.90444 7.97595C8.03988 7.86907 8.14021 7.7328 8.20542 7.56713C8.27063 7.39613 8.30324 7.2171 8.30324 7.03006V6.41283C8.30324 6.2151 8.26812 6.0334 8.19789 5.86774C8.13268 5.69673 8.02985 5.56045 7.88939 5.45892C7.75395 5.35204 7.57838 5.2986 7.36268 5.2986C7.16203 5.2986 6.99147 5.35204 6.85102 5.45892C6.71056 5.56045 6.60522 5.69673 6.53499 5.86774C6.46978 6.0334 6.43717 6.2151 6.43717 6.41283ZM10.237 13.5952V12.978C10.237 12.5397 10.3273 12.1389 10.5079 11.7756C10.6935 11.4122 10.9619 11.1209 11.313 10.9018C11.6692 10.6827 12.1056 10.5731 12.6223 10.5731C13.144 10.5731 13.5804 10.6827 13.9315 10.9018C14.2827 11.1209 14.5485 11.4122 14.7291 11.7756C14.9097 12.1389 15 12.5397 15 12.978V13.5952C15 14.0334 14.9097 14.4342 14.7291 14.7976C14.5535 15.161 14.2902 15.4522 13.9391 15.6713C13.5879 15.8904 13.154 16 12.6373 16C12.1156 16 11.6767 15.8904 11.3205 15.6713C10.9644 15.4522 10.6935 15.161 10.5079 14.7976C10.3273 14.4342 10.237 14.0334 10.237 13.5952ZM11.6817 12.978V13.5952C11.6817 13.7876 11.7218 13.9693 11.8021 14.1403C11.8824 14.3113 11.9927 14.4476 12.1332 14.5491C12.2787 14.6506 12.4467 14.7014 12.6373 14.7014C12.8781 14.7014 13.0662 14.6506 13.2017 14.5491C13.3371 14.4476 13.4299 14.3113 13.4801 14.1403C13.5352 13.9693 13.5628 13.7876 13.5628 13.5952V12.978C13.5628 12.7856 13.5277 12.6065 13.4575 12.4409C13.3873 12.2699 13.2819 12.1336 13.1415 12.0321C13.006 11.9252 12.833 11.8717 12.6223 11.8717C12.4116 11.8717 12.236 11.9252 12.0956 12.0321C11.9601 12.1336 11.8573 12.2699 11.7871 12.4409C11.7168 12.6065 11.6817 12.7856 11.6817 12.978ZM13.1565 5.83567L7.80662 14.9579L6.7532 14.3647L12.1031 5.24248L13.1565 5.83567Z" fill="white"/>
</svg>
