<svg width="20" height="20" viewBox="0 0 20 20" fill="none" xmlns="http://www.w3.org/2000/svg">
<path d="M10 0C4.48624 0 0 4.48624 0 10C0 15.5138 4.48624 20 10 20C15.5138 20 20 15.5138 20 10C20 4.48624 15.5138 0 10 0ZM15.5889 7.36847L9.198 13.7093C8.82206 14.0852 8.22055 14.1102 7.81953 13.7344L4.43612 10.6516C4.03511 10.2757 4.01005 9.64913 4.36093 9.24812C4.73687 8.84712 5.36344 8.82206 5.76446 9.198L8.44611 11.6541L14.1603 5.93976C14.5614 5.53876 15.188 5.53876 15.5889 5.93976C15.99 6.34076 15.99 6.96746 15.5889 7.36847Z" fill="#2D2D2D"/>
</svg>
