<svg width="18" height="18" viewBox="0 0 18 18" fill="none" xmlns="http://www.w3.org/2000/svg">
<g clip-path="url(#clip0_3691_43090)">
<path d="M15.75 1.5H2.25C1.425 1.5 0.75 2.175 0.75 3V12C0.75 12.825 1.425 13.5 2.25 13.5H7.5V15H6V16.5H12V15H10.5V13.5H15.75C16.575 13.5 17.25 12.825 17.25 12V3C17.25 2.175 16.575 1.5 15.75 1.5ZM15.75 12H2.25V3H15.75V12Z" fill="#2D2D2D"/>
<rect x="2" y="3" width="14" height="9" fill="#2D2D2D"/>
<path d="M12.6336 7.40001C12.6336 7.96314 12.5337 8.43316 12.3339 8.81009C12.1386 9.18702 11.8639 9.46859 11.5097 9.65478C11.1554 9.84098 10.7467 9.93407 10.2835 9.93407H8.70312V5.07031H10.3653C10.8648 5.07031 11.2826 5.16114 11.6187 5.34279C11.9547 5.5199 12.2068 5.78103 12.3748 6.12617C12.5474 6.47131 12.6336 6.89593 12.6336 7.40001ZM11.1963 7.4477C11.1963 7.15251 11.1668 6.90728 11.1078 6.712C11.0487 6.51673 10.9556 6.3714 10.8285 6.27603C10.7059 6.18067 10.5492 6.13298 10.3584 6.13298H10.0928V8.85778H10.2835C10.6059 8.85778 10.8375 8.74197 10.9783 8.51037C11.1237 8.27876 11.1963 7.92454 11.1963 7.4477Z" fill="white"/>
<path d="M8.20163 6.12398C8.20163 6.35559 8.15168 6.5554 8.05177 6.72343C7.9564 6.88692 7.83152 7.02316 7.67711 7.13215C7.52271 7.2366 7.35468 7.31608 7.17302 7.37057V7.39101C7.53633 7.43642 7.82016 7.5545 8.02452 7.74523C8.22888 7.93143 8.33106 8.19709 8.33106 8.54223C8.33106 8.80563 8.26294 9.04859 8.1267 9.27112C7.99046 9.49364 7.77929 9.67075 7.49319 9.80245C7.20708 9.93415 6.83924 10 6.38965 10C6.07175 10 5.81063 9.97729 5.60627 9.93188C5.40191 9.88193 5.19982 9.81608 5 9.73433V8.64441C5.19982 8.75341 5.40191 8.83515 5.60627 8.88965C5.81517 8.9396 6.00136 8.96458 6.16485 8.96458C6.44187 8.96458 6.62579 8.91916 6.71662 8.82834C6.81199 8.73751 6.85967 8.6149 6.85967 8.46049C6.85967 8.3515 6.83697 8.2584 6.79155 8.1812C6.74614 8.09945 6.65758 8.03815 6.52589 7.99728C6.39873 7.9564 6.21026 7.93597 5.96049 7.93597H5.71526V6.94823H5.9673C6.17166 6.94823 6.33969 6.92779 6.47139 6.88692C6.60309 6.84151 6.70073 6.7802 6.76431 6.703C6.82788 6.62579 6.85967 6.53724 6.85967 6.43733C6.85967 6.30563 6.81426 6.21026 6.72343 6.15123C6.63715 6.08765 6.53951 6.05586 6.43052 6.05586C6.29428 6.05586 6.16485 6.07629 6.04223 6.11717C5.91962 6.15804 5.81517 6.20345 5.72888 6.25341C5.6426 6.29882 5.58356 6.33742 5.55177 6.36921L5.00681 5.49046C5.13851 5.39964 5.27702 5.31789 5.42234 5.24523C5.57221 5.16803 5.74932 5.10899 5.95368 5.06812C6.15804 5.02271 6.40327 5 6.68937 5C7.16167 5 7.53179 5.09991 7.79973 5.29973C8.06767 5.49955 8.20163 5.7743 8.20163 6.12398Z" fill="white"/>
</g>
<defs>
<clipPath id="clip0_3691_43090">
<rect width="18" height="18" fill="white"/>
</clipPath>
</defs>
</svg>
