<svg width="135" height="30" viewBox="0 0 135 30" fill="none" xmlns="http://www.w3.org/2000/svg">
<path d="M102.207 24.2578H102.376C102.779 24.2578 103.106 24.586 103.106 24.9897V26.0891C103.106 26.4929 102.779 26.821 102.376 26.821H102.207C101.804 26.821 101.477 26.4929 101.477 26.0891V24.9897C101.477 24.586 101.804 24.2578 102.207 24.2578Z" fill="#2D2D2D"/>
<path fill-rule="evenodd" clip-rule="evenodd" d="M74.0332 26.0791H74.9774L74.5081 24.7578L74.0332 26.0791Z" fill="#2D2D2D"/>
<path d="M59.9749 24.2578H59.8047C59.4017 24.2578 59.075 24.5855 59.075 24.9897V26.0891C59.075 26.4933 59.4017 26.821 59.8047 26.821H59.9749C60.3779 26.821 60.7047 26.4933 60.7047 26.0891V24.9897C60.7047 24.5855 60.3779 24.2578 59.9749 24.2578Z" fill="#2D2D2D"/>
<path d="M88.4495 24.2578H88.2793C87.8763 24.2578 87.5496 24.5855 87.5496 24.9897V26.0891C87.5496 26.4933 87.8763 26.821 88.2793 26.821H88.4495C88.8525 26.821 89.1793 26.4933 89.1793 26.0891V24.9897C89.1793 24.5855 88.8525 24.2578 88.4495 24.2578Z" fill="#2D2D2D"/>
<path fill-rule="evenodd" clip-rule="evenodd" d="M132.792 21H35.3881C34.1691 21 33.1807 21.9888 33.1807 23.2088V27.7695C33.1807 28.9896 34.1691 29.9784 35.3881 29.9784H132.792C134.011 29.9784 134.999 28.9896 134.999 27.7695V23.2088C134.999 21.9888 134.011 21 132.792 21H132.792ZM46.5336 27.9064C45.3308 27.9064 44.3623 26.8902 44.3623 25.4889C44.3623 24.0876 45.3065 23.0713 46.5816 23.0713C47.4416 23.0713 47.977 23.4832 48.3496 24.0545L47.4958 24.7851C47.2553 24.4532 46.973 24.247 46.5697 24.247C45.9802 24.247 45.5651 24.7982 45.5651 25.4889C45.5651 26.1795 45.9802 26.7308 46.5697 26.7308C47.0085 26.7308 47.2671 26.5051 47.5201 26.1664L48.3983 26.857C48.0013 27.4614 47.4659 27.9064 46.5336 27.9064ZM55.0398 24.3863H53.7766V27.9064H52.6099V24.3863H51.3467V23.2576H55.0392V24.3863H55.0398ZM61.7917 26.0845C61.7917 26.5864 61.5879 27.0427 61.2589 27.3727H61.2545C60.9261 27.702 60.4724 27.9071 59.9744 27.9071H59.8049C59.3076 27.9071 58.8539 27.702 58.5248 27.3727L58.5205 27.3683C58.192 27.0383 57.9876 26.5839 57.9876 26.0845V24.9851C57.9876 24.4857 58.192 24.0313 58.5205 23.7013V23.6969C58.8495 23.3669 59.3038 23.1626 59.8049 23.1626H59.9744C60.4755 23.1626 60.9298 23.3669 61.2589 23.6969C61.5879 24.027 61.7917 24.4826 61.7917 24.9851V26.0845ZM69.2148 27.9064H68.0537V25.237L67.2392 26.9052H66.6914L65.8831 25.2507V27.9071H64.7401V23.2582H65.9728L66.9774 25.3489L67.9821 23.2582H69.2148V27.9071V27.9064ZM75.6214 27.9064L75.3148 27.0764H73.6907L73.3897 27.9064H72.1626L73.9549 23.2244H75.0798L76.8722 27.9064H75.6214ZM83.5138 24.3863H82.2505V27.9064H81.0839V24.3863H79.8206V23.2576H83.5131V24.3863H83.5138ZM90.2656 26.0845C90.2656 26.5864 90.0618 27.0427 89.7328 27.3727H89.7284C89.4 27.702 88.9463 27.9071 88.4483 27.9071H88.2788C87.7815 27.9071 87.3278 27.702 86.9994 27.3727L86.995 27.3683C86.6666 27.0383 86.4622 26.5839 86.4622 26.0845V24.9851C86.4622 24.4857 86.6666 24.0313 86.995 23.7013V23.6969C87.3241 23.3669 87.7784 23.1626 88.2795 23.1626H88.449C88.95 23.1626 89.4044 23.3669 89.7334 23.6969C90.0625 24.027 90.2663 24.4826 90.2663 24.9851V26.0845H90.2656ZM97.4419 27.8402H96.2753V24.3201H95.295V24.4995C95.295 27.3352 94.7297 27.9064 93.9114 27.9064C93.6048 27.9064 93.3038 27.8333 93.2141 27.8002L93.292 26.8108C93.3462 26.8239 93.5082 26.8377 93.5624 26.8377C93.8933 26.8377 94.2062 26.652 94.2062 23.8357V23.1913H97.4419V27.8402ZM104.194 26.0845C104.194 26.5864 103.99 27.0427 103.661 27.3727H103.657C103.328 27.702 102.874 27.9071 102.377 27.9071H102.207C101.71 27.9071 101.256 27.702 100.927 27.3727L100.923 27.3683C100.594 27.0383 100.39 26.5839 100.39 26.0845V24.9851C100.39 24.4857 100.594 24.0313 100.923 23.7013V23.6969C101.252 23.3669 101.706 23.1626 102.206 23.1626H102.376C102.877 23.1626 103.331 23.3669 103.66 23.6969C103.989 24.027 104.193 24.4826 104.193 24.9851V26.0845H104.194ZM110.174 24.3863H108.309V27.9064H107.143V23.2576H110.174V24.3863ZM116.995 27.9064H115.84V25.2901L114.211 27.9064H113.122V23.2576H114.277V25.8745L115.906 23.2576H116.995V27.9064ZM123.818 27.9064H122.651V26.4983H122.14L121.292 27.9064H119.945L120.949 26.2858C120.426 26.0401 120.083 25.5682 120.083 24.8445C120.083 23.7551 120.871 23.2569 121.828 23.2569H123.818V27.9058V27.9064Z" fill="#2D2D2D"/>
<path fill-rule="evenodd" clip-rule="evenodd" d="M121.256 24.936C121.256 25.2747 121.484 25.5072 121.881 25.5072H122.651V24.3516H121.888C121.497 24.3516 121.256 24.5572 121.256 24.936H121.256Z" fill="#2D2D2D"/>
<path fill-rule="evenodd" clip-rule="evenodd" d="M88.3533 6.96875H93.8643V9.0463H88.3533V6.96875Z" fill="#2D2D2D"/>
<path fill-rule="evenodd" clip-rule="evenodd" d="M98.7772 11.243C98.8395 10.4105 101.233 3.2959 101.597 2.81464C102.025 3.13527 104.116 10.2048 104.462 11.238L98.7772 11.243ZM96.9961 13.2037L106.154 13.2418L106.16 15.9531L108.392 15.9369L108.366 11.2505L107.037 11.2349C106.07 8.83792 105.135 6.20973 104.265 3.69154C103.769 2.25462 103.425 -0.0235664 101.599 0.000184222C99.5469 0.0264349 99.4777 2.07336 98.8913 3.6634L96.0725 11.2405L94.8965 11.2449L94.9102 15.9469L96.9369 15.9412L96.9961 13.2037Z" fill="#2D2D2D"/>
<path fill-rule="evenodd" clip-rule="evenodd" d="M33.0271 0.117188V4.04292C33.0271 5.58796 33.0595 6.75049 33.2402 7.09237C33.6584 7.88552 34.9927 7.97927 36.3968 7.98365C37.4868 7.98677 38.6248 7.96552 39.3739 7.98365L39.3446 11.2431L33.2028 11.245L33.1817 13.2132C34.764 13.2132 36.982 13.2088 38.5681 13.2088C40.7986 13.2088 41.6461 13.2875 41.6436 10.8675C41.6399 7.33676 41.7408 3.68166 41.6374 0.118439H39.3795L39.3614 5.98922L35.2925 5.95359L35.2763 0.117813H33.0271V0.117188Z" fill="#2D2D2D"/>
<path fill-rule="evenodd" clip-rule="evenodd" d="M72.0706 5.83449H75.2851C75.6223 5.83449 75.5568 5.79074 75.5574 6.1395C75.5618 7.64204 75.5574 9.75022 75.5574 11.1809C75.5574 11.4646 75.6029 11.419 75.3194 11.419H72.0706V5.83511V5.83449ZM72.1024 13.2284C73.1469 13.1434 75.6946 13.3553 76.4748 13.1147C77.9094 12.6728 77.6122 11.3203 77.6128 9.77209C77.6147 4.58258 78.2155 3.87256 74.6245 3.87131C69.7391 3.87006 70.009 3.31754 70.0084 8.14517C70.0084 10.8234 70.0084 14.286 70.0084 16.9504L72.0693 16.9592L72.1017 13.2284H72.1024Z" fill="#2D2D2D"/>
<path fill-rule="evenodd" clip-rule="evenodd" d="M111.599 7.80071L111.621 5.84191H114.662C114.879 5.84191 114.855 5.79941 114.855 6.00754V7.58383C114.855 7.84571 114.896 7.80071 114.633 7.80071C113.746 7.80071 112.316 7.80071 111.599 7.80071H111.599ZM109.361 6.38067L109.36 11.0027C109.365 13.0202 109.968 13.2146 111.899 13.2096C113.454 13.2052 115.093 13.2621 116.637 13.1915L116.653 11.4271H111.599C111.599 10.9508 111.597 10.0758 111.599 9.57263C115.112 9.47888 116.84 10.0595 116.895 7.88259C116.933 6.37567 117.156 4.65625 116.072 4.10186C115.333 3.72373 112.642 3.86935 111.627 3.8806C109.692 3.90248 109.361 4.5 109.361 6.3813L109.361 6.38067Z" fill="#2D2D2D"/>
<path fill-rule="evenodd" clip-rule="evenodd" d="M81.8338 9.3716C82.654 9.37285 83.7415 9.37722 84.5398 9.3716C84.5367 10.0041 84.5367 10.896 84.5367 11.3685H81.8731C81.2848 11.3385 81.2929 11.3342 81.2723 10.7404C81.263 10.476 81.2698 10.1104 81.286 9.80161C81.3128 9.2841 81.3116 9.37097 81.8345 9.3716H81.8338ZM79.7056 5.84151H84.5367V7.44342C83.3545 7.45093 82.4433 7.44342 81.7316 7.44342C79.4083 7.44342 79.2674 7.64843 79.2593 10.8666C79.255 12.5892 79.4563 13.2005 81.2661 13.2117C84.0811 13.2286 86.2798 13.7286 86.5902 11.9992L86.6276 5.56838C86.5148 3.88646 85.77 3.86021 83.9771 3.86021C82.9849 3.85833 80.5513 3.86021 79.6931 3.86021L79.7062 5.84151H79.7056Z" fill="#2D2D2D"/>
<path fill-rule="evenodd" clip-rule="evenodd" d="M120.722 9.37639L123.942 9.38015L123.956 13.1977L126.034 13.2077L126.036 3.875H123.941L123.94 7.4901L120.707 7.48822L120.706 3.875L118.621 3.88125L118.616 13.2109L120.715 13.1746L120.72 10.4539L120.722 9.37639Z" fill="#2D2D2D"/>
<path fill-rule="evenodd" clip-rule="evenodd" d="M58.6044 10.3345V11.2177C58.6044 11.3621 58.4867 11.4796 58.3433 11.4796H56.971C56.9162 11.4796 56.8613 11.4796 56.8071 11.4796H55.5395C55.3955 11.4796 55.2784 11.3614 55.2784 11.2177V9.5889C55.2784 9.44452 55.3955 9.32702 55.5395 9.32702H58.3427C58.4867 9.32702 58.6038 9.44452 58.6038 9.5889V10.3345H58.6044ZM53.1825 3.88563C53.1825 5.31254 53.18 9.22827 53.1825 10.8614C53.1838 11.8583 53.1713 12.9296 54.4395 13.1559C55.2566 13.3015 56.9124 13.2059 57.8173 13.2065C58.9503 13.2071 60.1332 13.3509 60.5221 12.3583C60.7271 11.834 60.719 9.76515 60.6561 9.09201C60.5239 7.67822 59.6652 7.43884 58.2137 7.43884C57.4035 7.43884 56.4151 7.4476 55.2809 7.43134L55.2796 3.875L53.1831 3.88625L53.1825 3.88563Z" fill="#2D2D2D"/>
<path fill-rule="evenodd" clip-rule="evenodd" d="M45.1198 13.2128C45.1915 12.929 47.4382 6.50135 47.5161 6.40823L50.227 13.204L52.2643 13.199L50.4109 7.96452L49.4237 5.42008C49.066 4.51131 48.8348 3.81191 47.6532 3.77441C46.7346 3.74503 46.1338 4.38568 45.7698 5.3807L44.8101 8.00515L42.981 13.2122H45.1204L45.1198 13.2128Z" fill="#2D2D2D"/>
<path fill-rule="evenodd" clip-rule="evenodd" d="M60.8515 5.78537L63.6984 5.78974L63.7114 13.2106H65.9002L65.9201 5.78724L68.7682 5.77724L68.7165 3.86719L60.8416 3.86906L60.8515 5.78537Z" fill="#2D2D2D"/>
<path fill-rule="evenodd" clip-rule="evenodd" d="M127.253 5.78224L130.106 5.78412L130.105 13.2087H132.168L132.172 5.78598L134.999 5.78412V3.86719L127.253 3.87344V5.78224Z" fill="#2D2D2D"/>
<path fill-rule="evenodd" clip-rule="evenodd" d="M15.8891 0.58094C15.8891 0.58094 7.2875 -1.27974 3.18178 1.70409C-0.924565 4.68792 -0.515115 9.86244 1.38319 16.5057C3.28149 23.1497 5.47021 26.766 6.48854 27.3479C7.50687 27.9298 7.97116 27.7617 8.94898 26.7616C9.9268 25.761 10.8005 23.0928 12.1242 22.8353C13.448 22.5778 14.9293 23.5228 15.813 26.0641C16.6961 28.6054 17.0532 28.9236 17.8865 29.6198C18.7197 30.3161 22.0271 31.0574 24.4869 21.9059C26.9467 12.7544 29.0725 5.88545 26.1023 2.7135C23.3676 -0.206581 18.9665 1.13846 16.9878 1.76535C15.3456 2.28536 14.0768 2.75538 13.2286 3.17789C12.5592 3.51164 10.8286 4.57042 10.8286 4.57042C10.8286 4.57042 11.7447 3.37039 13.1289 2.33224C14.8259 1.06033 15.8897 0.579693 15.8897 0.579693L15.8891 0.58094Z" fill="#2D2D2D"/>
<path fill-rule="evenodd" clip-rule="evenodd" d="M22.2625 9.3116L21.8536 8.38719C21.8536 8.38719 21.8518 8.38282 21.8499 8.38032C21.8381 8.35907 21.8162 8.31781 21.7969 8.28906C21.7969 9.02096 22.2251 10.5566 21.4068 11.9385C20.1005 14.1455 17.2743 12.0192 14.3975 12.6911C13.391 12.9261 12.4201 13.6636 12.1334 14.5899C12.1128 14.6561 12.1658 14.7224 12.235 14.718C13.0277 14.6624 14.1806 14.3205 15.758 15.0936C18.0246 16.2055 18.1443 19.1612 17.6818 21.3732C17.3702 22.8663 16.828 23.7888 16.623 24.4257C16.5975 24.5039 16.6735 24.5764 16.7514 24.5495C17.8034 24.1876 19.3402 22.7513 19.9628 22.0138C22.4787 19.0325 23.6715 14.4636 22.5959 10.481C22.4868 10.0766 22.3709 9.64535 22.2662 9.32159C22.2649 9.31847 22.2637 9.31472 22.2625 9.3116Z" fill="white"/>
<path fill-rule="evenodd" clip-rule="evenodd" d="M10.8781 12.16C11.4596 12.0618 12.4898 11.9112 13.1367 12.1243C13.2096 12.1481 13.2819 12.0856 13.2663 12.0099C13.0157 10.7993 11.272 9.94114 9.8598 9.94114C7.16192 9.94114 3.83459 12.0581 3.50989 7.1917C3.48185 6.76794 3.60213 6.40793 3.68315 6.00229C3.70558 5.88979 3.55165 5.83478 3.49805 5.93603C3.48123 5.96729 3.46253 6.00416 3.44072 6.04729C2.81813 7.2917 2.67604 9.06425 2.50341 10.3493C2.11328 13.2481 3.49556 17.1257 5.4163 19.3364C6.49321 20.5758 7.15382 21.1646 8.64579 21.9721C8.71808 22.0115 8.80533 21.9502 8.79224 21.8683C8.71995 21.4189 8.54919 21.2602 8.38778 20.8452C7.16877 17.7045 6.68516 12.8643 10.8781 12.1587V12.16Z" fill="white"/>
<path fill-rule="evenodd" clip-rule="evenodd" d="M7.95481 8.94137C11.0117 8.20635 10.4801 4.70312 8.36737 4.70312H7.62139C6.66476 4.70312 5.38281 5.78315 5.38281 6.79818C5.38281 8.70448 6.80436 9.21762 7.95481 8.94137Z" fill="white"/>
<path fill-rule="evenodd" clip-rule="evenodd" d="M19.3785 11.0998C21.2113 9.5985 19.4395 7.24219 17.4721 7.24219C16.4519 7.24219 15.3831 7.90095 15.3831 8.88848C15.3831 11.4348 18.0865 12.1586 19.3791 11.0998H19.3785Z" fill="white"/>
<path fill-rule="evenodd" clip-rule="evenodd" d="M26.222 5.20355C25.5321 1.27969 19.7612 2.26409 17.3712 3.70288C17.2733 3.76163 17.3356 3.91226 17.4466 3.88539C17.7663 3.80789 18.01 3.6885 18.4537 3.591C19.9912 3.25287 22.0995 3.15724 23.3478 3.746C25.4362 4.73103 25.6618 6.3567 25.678 8.56863C25.6786 8.67301 25.8176 8.70613 25.8662 8.61426C26.055 8.25612 26.1348 7.80487 26.2189 7.33735C26.3354 6.69234 26.3367 5.85231 26.2226 5.20355H26.222Z" fill="white"/>
</svg>
