<svg width="32" height="32" viewBox="0 0 32 32" fill="none" xmlns="http://www.w3.org/2000/svg">
<rect width="32" height="32" rx="16" fill="white" fill-opacity="0.25"/>
<path d="M16 6C10.4862 6 6 10.4862 6 16C6 21.5138 10.4862 26 16 26C21.5138 26 26 21.5138 26 16C26 10.4862 21.5138 6 16 6ZM21.5889 13.3685L15.198 19.7093C14.8221 20.0852 14.2206 20.1102 13.8195 19.7344L10.4361 16.6516C10.0351 16.2757 10.01 15.6491 10.3609 15.2481C10.7369 14.8471 11.3634 14.8221 11.7645 15.198L14.4461 17.6541L20.1603 11.9398C20.5614 11.5388 21.188 11.5388 21.5889 11.9398C21.99 12.3408 21.99 12.9675 21.5889 13.3685Z" fill="white"/>
</svg>
